<svg width="70" height="65" viewBox="0 0 70 65" fill="none" xmlns="http://www.w3.org/2000/svg">
<path d="M70 29.1207C70 27.4331 69.3295 25.8146 68.1361 24.6213C66.9427 23.428 65.3241 22.7576 63.6364 22.7576H43.5273L46.5818 8.21797C46.6455 7.89981 46.6773 7.54984 46.6773 7.19987C46.6773 5.89544 46.1364 4.68645 45.2773 3.82744L41.9045 0.486816L20.9682 21.4214C19.7909 22.5985 19.0909 24.1893 19.0909 25.9392V57.7546C19.0909 59.4422 19.7614 61.0607 20.9548 62.254C22.1482 63.4473 23.7668 64.1177 25.4545 64.1177H54.0909C56.7318 64.1177 58.9909 62.5269 59.9455 60.2362L69.5546 37.8063C69.8409 37.0746 70 36.311 70 35.4838V29.1207ZM0 64.1177H12.7273V25.9392H0V64.1177Z" fill="white"/>
</svg>
